<svg width="67" height="90" viewBox="0 0 67 90" fill="none" xmlns="http://www.w3.org/2000/svg">
<g filter="url(#filter0_d_1_5511)">
<path d="M30.1198 31.2278C35.6908 31.2278 40.3333 33.3629 44.0474 37.6329C47.7614 41.903 49.6184 46.73 49.6184 52.1139C49.6184 58.4262 47.39 63.5316 42.9331 67.4304C38.4763 71.1435 33.7409 73 28.727 73C23.8988 73 19.0706 70.865 14.2423 66.5949C9.41411 62.1392 7 56.384 7 49.3291C7 38.3755 10.5283 28.9072 17.585 20.9241C24.6416 12.7553 31.8839 8.11392 39.312 7L41.5404 11.4557C37.2693 13.1266 32.3482 16.3755 26.7772 21.2025C21.3918 26.0295 18.5135 30.7637 18.1421 35.4051C22.7846 32.6203 26.7772 31.2278 30.1198 31.2278Z" fill="url(#paint0_radial_1_5511)"/>
</g>
<defs>
<filter id="filter0_d_1_5511" x="0" y="0" width="66.6184" height="90" filterUnits="userSpaceOnUse" color-interpolation-filters="sRGB">
<feFlood flood-opacity="0" result="BackgroundImageFix"/>
<feColorMatrix in="SourceAlpha" type="matrix" values="0 0 0 0 0 0 0 0 0 0 0 0 0 0 0 0 0 0 127 0" result="hardAlpha"/>
<feOffset dx="5" dy="5"/>
<feGaussianBlur stdDeviation="6"/>
<feComposite in2="hardAlpha" operator="out"/>
<feColorMatrix type="matrix" values="0 0 0 0 0.945098 0 0 0 0 0.321569 0 0 0 0 0.254902 0 0 0 0.32 0"/>
<feBlend mode="normal" in2="BackgroundImageFix" result="effect1_dropShadow_1_5511"/>
<feBlend mode="normal" in="SourceGraphic" in2="effect1_dropShadow_1_5511" result="shape"/>
</filter>
<radialGradient id="paint0_radial_1_5511" cx="0" cy="0" r="1" gradientUnits="userSpaceOnUse" gradientTransform="translate(15.5643 34.256) rotate(43.7423) scale(44.8779 50.1283)">
<stop offset="0.0002" stop-color="white"/>
<stop offset="0.0003" stop-color="#FFA197"/>
<stop offset="0.15625" stop-color="#FF7364"/>
<stop offset="0.645833" stop-color="#EC5444"/>
<stop offset="1" stop-color="#E03D2C"/>
</radialGradient>
</defs>
</svg>
