<svg width="1358" height="1083" viewBox="0 0 1358 1083" fill="none" xmlns="http://www.w3.org/2000/svg">
<circle cx="1" cy="1" r="1" fill="#333333"/>
<circle cx="1" cy="41" r="1" fill="#333333"/>
<circle cx="1" cy="81" r="1" fill="#333333"/>
<circle cx="1" cy="121" r="1" fill="#333333"/>
<circle cx="1" cy="161" r="1" fill="#333333"/>
<circle cx="1" cy="201" r="1" fill="#333333"/>
<circle cx="1" cy="241" r="1" fill="#333333"/>
<circle cx="1" cy="281" r="1" fill="#333333"/>
<circle cx="1" cy="321" r="1" fill="#333333"/>
<circle cx="1" cy="361" r="1" fill="#333333"/>
<circle cx="1" cy="401" r="1" fill="#333333"/>
<circle cx="1" cy="441" r="1" fill="#333333"/>
<circle cx="1" cy="481" r="1" fill="#333333"/>
<circle cx="1" cy="521" r="1" fill="#333333"/>
<circle cx="36" cy="1" r="1" fill="#333333"/>
<circle cx="36" cy="41" r="1" fill="#333333"/>
<circle cx="36" cy="81" r="1" fill="#333333"/>
<circle cx="36" cy="121" r="1" fill="#333333"/>
<circle cx="36" cy="161" r="1" fill="#333333"/>
<circle cx="36" cy="201" r="1" fill="#333333"/>
<circle cx="36" cy="241" r="1" fill="#333333"/>
<circle cx="36" cy="281" r="1" fill="#333333"/>
<circle cx="36" cy="321" r="1" fill="#333333"/>
<circle cx="36" cy="361" r="1" fill="#333333"/>
<circle cx="36" cy="401" r="1" fill="#333333"/>
<circle cx="36" cy="441" r="1" fill="#333333"/>
<circle cx="36" cy="481" r="1" fill="#333333"/>
<circle cx="36" cy="521" r="1" fill="#333333"/>
<circle cx="76" cy="1" r="1" fill="#333333"/>
<circle cx="76" cy="41" r="1" fill="#333333"/>
<circle cx="76" cy="81" r="1" fill="#333333"/>
<circle cx="76" cy="121" r="1" fill="#333333"/>
<circle cx="76" cy="161" r="1" fill="#333333"/>
<circle cx="76" cy="201" r="1" fill="#333333"/>
<circle cx="76" cy="241" r="1" fill="#333333"/>
<circle cx="76" cy="281" r="1" fill="#333333"/>
<circle cx="76" cy="321" r="1" fill="#333333"/>
<circle cx="76" cy="361" r="1" fill="#333333"/>
<circle cx="76" cy="401" r="1" fill="#333333"/>
<circle cx="76" cy="441" r="1" fill="#333333"/>
<circle cx="76" cy="481" r="1" fill="#333333"/>
<circle cx="76" cy="521" r="1" fill="#333333"/>
<circle cx="116" cy="1" r="1" fill="#333333"/>
<circle cx="116" cy="41" r="1" fill="#333333"/>
<circle cx="116" cy="81" r="1" fill="#333333"/>
<circle cx="116" cy="121" r="1" fill="#333333"/>
<circle cx="116" cy="161" r="1" fill="#333333"/>
<circle cx="116" cy="201" r="1" fill="#333333"/>
<circle cx="116" cy="241" r="1" fill="#333333"/>
<circle cx="116" cy="281" r="1" fill="#333333"/>
<circle cx="116" cy="321" r="1" fill="#333333"/>
<circle cx="116" cy="361" r="1" fill="#333333"/>
<circle cx="116" cy="401" r="1" fill="#333333"/>
<circle cx="116" cy="441" r="1" fill="#333333"/>
<circle cx="116" cy="481" r="1" fill="#333333"/>
<circle cx="116" cy="521" r="1" fill="#333333"/>
<circle cx="156" cy="1" r="1" fill="#333333"/>
<circle cx="156" cy="41" r="1" fill="#333333"/>
<circle cx="156" cy="81" r="1" fill="#333333"/>
<circle cx="156" cy="121" r="1" fill="#333333"/>
<circle cx="156" cy="161" r="1" fill="#333333"/>
<circle cx="156" cy="201" r="1" fill="#333333"/>
<circle cx="156" cy="241" r="1" fill="#333333"/>
<circle cx="156" cy="281" r="1" fill="#333333"/>
<circle cx="156" cy="321" r="1" fill="#333333"/>
<circle cx="156" cy="361" r="1" fill="#333333"/>
<circle cx="156" cy="401" r="1" fill="#333333"/>
<circle cx="156" cy="441" r="1" fill="#333333"/>
<circle cx="156" cy="481" r="1" fill="#333333"/>
<circle cx="156" cy="521" r="1" fill="#333333"/>
<circle cx="196" cy="1" r="1" fill="#333333"/>
<circle cx="196" cy="41" r="1" fill="#333333"/>
<circle cx="196" cy="81" r="1" fill="#333333"/>
<circle cx="196" cy="121" r="1" fill="#333333"/>
<circle cx="196" cy="161" r="1" fill="#333333"/>
<circle cx="196" cy="201" r="1" fill="#333333"/>
<circle cx="196" cy="241" r="1" fill="#333333"/>
<circle cx="196" cy="281" r="1" fill="#333333"/>
<circle cx="196" cy="321" r="1" fill="#333333"/>
<circle cx="196" cy="361" r="1" fill="#333333"/>
<circle cx="196" cy="401" r="1" fill="#333333"/>
<circle cx="196" cy="441" r="1" fill="#333333"/>
<circle cx="196" cy="481" r="1" fill="#333333"/>
<circle cx="196" cy="521" r="1" fill="#333333"/>
<circle cx="236" cy="1" r="1" fill="#333333"/>
<circle cx="236" cy="41" r="1" fill="#333333"/>
<circle cx="236" cy="81" r="1" fill="#333333"/>
<circle cx="236" cy="121" r="1" fill="#333333"/>
<circle cx="236" cy="161" r="1" fill="#333333"/>
<circle cx="236" cy="201" r="1" fill="#333333"/>
<circle cx="236" cy="241" r="1" fill="#333333"/>
<circle cx="236" cy="281" r="1" fill="#333333"/>
<circle cx="236" cy="321" r="1" fill="#333333"/>
<circle cx="236" cy="361" r="1" fill="#333333"/>
<circle cx="236" cy="401" r="1" fill="#333333"/>
<circle cx="236" cy="441" r="1" fill="#333333"/>
<circle cx="236" cy="481" r="1" fill="#333333"/>
<circle cx="236" cy="521" r="1" fill="#333333"/>
<circle cx="276" cy="1" r="1" fill="#333333"/>
<circle cx="276" cy="41" r="1" fill="#333333"/>
<circle cx="276" cy="81" r="1" fill="#333333"/>
<circle cx="276" cy="121" r="1" fill="#333333"/>
<circle cx="276" cy="161" r="1" fill="#333333"/>
<circle cx="276" cy="201" r="1" fill="#333333"/>
<circle cx="276" cy="241" r="1" fill="#333333"/>
<circle cx="276" cy="281" r="1" fill="#333333"/>
<circle cx="276" cy="321" r="1" fill="#333333"/>
<circle cx="276" cy="361" r="1" fill="#333333"/>
<circle cx="276" cy="401" r="1" fill="#333333"/>
<circle cx="276" cy="441" r="1" fill="#333333"/>
<circle cx="276" cy="481" r="1" fill="#333333"/>
<circle cx="276" cy="521" r="1" fill="#333333"/>
<circle cx="316" cy="1" r="1" fill="#333333"/>
<circle cx="316" cy="41" r="1" fill="#333333"/>
<circle cx="316" cy="81" r="1" fill="#333333"/>
<circle cx="316" cy="121" r="1" fill="#333333"/>
<circle cx="316" cy="161" r="1" fill="#333333"/>
<circle cx="316" cy="201" r="1" fill="#333333"/>
<circle cx="316" cy="241" r="1" fill="#333333"/>
<circle cx="316" cy="281" r="1" fill="#333333"/>
<circle cx="316" cy="321" r="1" fill="#333333"/>
<circle cx="316" cy="361" r="1" fill="#333333"/>
<circle cx="316" cy="401" r="1" fill="#333333"/>
<circle cx="316" cy="441" r="1" fill="#333333"/>
<circle cx="316" cy="481" r="1" fill="#333333"/>
<circle cx="316" cy="521" r="1" fill="#333333"/>
<circle cx="356" cy="1" r="1" fill="#333333"/>
<circle cx="356" cy="41" r="1" fill="#333333"/>
<circle cx="356" cy="81" r="1" fill="#333333"/>
<circle cx="356" cy="121" r="1" fill="#333333"/>
<circle cx="356" cy="161" r="1" fill="#333333"/>
<circle cx="356" cy="201" r="1" fill="#333333"/>
<circle cx="356" cy="241" r="1" fill="#333333"/>
<circle cx="356" cy="281" r="1" fill="#333333"/>
<circle cx="356" cy="321" r="1" fill="#333333"/>
<circle cx="356" cy="361" r="1" fill="#333333"/>
<circle cx="356" cy="401" r="1" fill="#333333"/>
<circle cx="356" cy="441" r="1" fill="#333333"/>
<circle cx="356" cy="481" r="1" fill="#333333"/>
<circle cx="356" cy="521" r="1" fill="#333333"/>
<circle cx="396" cy="1" r="1" fill="#333333"/>
<circle cx="396" cy="41" r="1" fill="#333333"/>
<circle cx="396" cy="81" r="1" fill="#333333"/>
<circle cx="396" cy="121" r="1" fill="#333333"/>
<circle cx="396" cy="161" r="1" fill="#333333"/>
<circle cx="396" cy="201" r="1" fill="#333333"/>
<circle cx="396" cy="241" r="1" fill="#333333"/>
<circle cx="396" cy="281" r="1" fill="#333333"/>
<circle cx="396" cy="321" r="1" fill="#333333"/>
<circle cx="396" cy="361" r="1" fill="#333333"/>
<circle cx="396" cy="401" r="1" fill="#333333"/>
<circle cx="396" cy="441" r="1" fill="#333333"/>
<circle cx="396" cy="481" r="1" fill="#333333"/>
<circle cx="396" cy="521" r="1" fill="#333333"/>
<circle cx="436" cy="1" r="1" fill="#333333"/>
<circle cx="436" cy="41" r="1" fill="#333333"/>
<circle cx="436" cy="81" r="1" fill="#333333"/>
<circle cx="436" cy="121" r="1" fill="#333333"/>
<circle cx="436" cy="161" r="1" fill="#333333"/>
<circle cx="436" cy="201" r="1" fill="#333333"/>
<circle cx="436" cy="241" r="1" fill="#333333"/>
<circle cx="436" cy="281" r="1" fill="#333333"/>
<circle cx="436" cy="321" r="1" fill="#333333"/>
<circle cx="436" cy="361" r="1" fill="#333333"/>
<circle cx="436" cy="401" r="1" fill="#333333"/>
<circle cx="436" cy="441" r="1" fill="#333333"/>
<circle cx="436" cy="481" r="1" fill="#333333"/>
<circle cx="436" cy="521" r="1" fill="#333333"/>
<circle cx="476" cy="1" r="1" fill="#333333"/>
<circle cx="476" cy="41" r="1" fill="#333333"/>
<circle cx="476" cy="81" r="1" fill="#333333"/>
<circle cx="476" cy="121" r="1" fill="#333333"/>
<circle cx="476" cy="161" r="1" fill="#333333"/>
<circle cx="476" cy="201" r="1" fill="#333333"/>
<circle cx="476" cy="241" r="1" fill="#333333"/>
<circle cx="476" cy="281" r="1" fill="#333333"/>
<circle cx="476" cy="321" r="1" fill="#333333"/>
<circle cx="476" cy="361" r="1" fill="#333333"/>
<circle cx="476" cy="401" r="1" fill="#333333"/>
<circle cx="476" cy="441" r="1" fill="#333333"/>
<circle cx="476" cy="481" r="1" fill="#333333"/>
<circle cx="476" cy="521" r="1" fill="#333333"/>
<circle cx="516" cy="1" r="1" fill="#333333"/>
<circle cx="516" cy="41" r="1" fill="#333333"/>
<circle cx="516" cy="81" r="1" fill="#333333"/>
<circle cx="516" cy="121" r="1" fill="#333333"/>
<circle cx="516" cy="161" r="1" fill="#333333"/>
<circle cx="516" cy="201" r="1" fill="#333333"/>
<circle cx="516" cy="241" r="1" fill="#333333"/>
<circle cx="516" cy="281" r="1" fill="#333333"/>
<circle cx="516" cy="321" r="1" fill="#333333"/>
<circle cx="516" cy="361" r="1" fill="#333333"/>
<circle cx="516" cy="401" r="1" fill="#333333"/>
<circle cx="516" cy="441" r="1" fill="#333333"/>
<circle cx="516" cy="481" r="1" fill="#333333"/>
<circle cx="516" cy="521" r="1" fill="#333333"/>
<circle cx="556" cy="1" r="1" fill="#333333"/>
<circle cx="556" cy="41" r="1" fill="#333333"/>
<circle cx="556" cy="81" r="1" fill="#333333"/>
<circle cx="556" cy="121" r="1" fill="#333333"/>
<circle cx="556" cy="161" r="1" fill="#333333"/>
<circle cx="556" cy="201" r="1" fill="#333333"/>
<circle cx="556" cy="241" r="1" fill="#333333"/>
<circle cx="556" cy="281" r="1" fill="#333333"/>
<circle cx="556" cy="321" r="1" fill="#333333"/>
<circle cx="556" cy="361" r="1" fill="#333333"/>
<circle cx="556" cy="401" r="1" fill="#333333"/>
<circle cx="556" cy="441" r="1" fill="#333333"/>
<circle cx="556" cy="481" r="1" fill="#333333"/>
<circle cx="556" cy="521" r="1" fill="#333333"/>
<circle cx="596" cy="1" r="1" fill="#333333"/>
<circle cx="596" cy="41" r="1" fill="#333333"/>
<circle cx="596" cy="81" r="1" fill="#333333"/>
<circle cx="596" cy="121" r="1" fill="#333333"/>
<circle cx="596" cy="161" r="1" fill="#333333"/>
<circle cx="596" cy="201" r="1" fill="#333333"/>
<circle cx="596" cy="241" r="1" fill="#333333"/>
<circle cx="596" cy="281" r="1" fill="#333333"/>
<circle cx="596" cy="321" r="1" fill="#333333"/>
<circle cx="596" cy="361" r="1" fill="#333333"/>
<circle cx="596" cy="401" r="1" fill="#333333"/>
<circle cx="596" cy="441" r="1" fill="#333333"/>
<circle cx="596" cy="481" r="1" fill="#333333"/>
<circle cx="596" cy="521" r="1" fill="#333333"/>
<circle cx="636" cy="1" r="1" fill="#333333"/>
<circle cx="636" cy="41" r="1" fill="#333333"/>
<circle cx="636" cy="81" r="1" fill="#333333"/>
<circle cx="636" cy="121" r="1" fill="#333333"/>
<circle cx="636" cy="161" r="1" fill="#333333"/>
<circle cx="636" cy="201" r="1" fill="#333333"/>
<circle cx="636" cy="241" r="1" fill="#333333"/>
<circle cx="636" cy="281" r="1" fill="#333333"/>
<circle cx="636" cy="321" r="1" fill="#333333"/>
<circle cx="636" cy="361" r="1" fill="#333333"/>
<circle cx="636" cy="401" r="1" fill="#333333"/>
<circle cx="636" cy="441" r="1" fill="#333333"/>
<circle cx="636" cy="481" r="1" fill="#333333"/>
<circle cx="636" cy="521" r="1" fill="#333333"/>
<circle cx="676" cy="1" r="1" fill="#333333"/>
<circle cx="676" cy="41" r="1" fill="#333333"/>
<circle cx="676" cy="81" r="1" fill="#333333"/>
<circle cx="676" cy="121" r="1" fill="#333333"/>
<circle cx="676" cy="161" r="1" fill="#333333"/>
<circle cx="676" cy="201" r="1" fill="#333333"/>
<circle cx="676" cy="241" r="1" fill="#333333"/>
<circle cx="676" cy="281" r="1" fill="#333333"/>
<circle cx="676" cy="321" r="1" fill="#333333"/>
<circle cx="676" cy="361" r="1" fill="#333333"/>
<circle cx="676" cy="401" r="1" fill="#333333"/>
<circle cx="676" cy="441" r="1" fill="#333333"/>
<circle cx="676" cy="481" r="1" fill="#333333"/>
<circle cx="676" cy="521" r="1" fill="#333333"/>
<circle cx="716" cy="1" r="1" fill="#333333"/>
<circle cx="716" cy="41" r="1" fill="#333333"/>
<circle cx="716" cy="81" r="1" fill="#333333"/>
<circle cx="716" cy="121" r="1" fill="#333333"/>
<circle cx="716" cy="161" r="1" fill="#333333"/>
<circle cx="716" cy="201" r="1" fill="#333333"/>
<circle cx="716" cy="241" r="1" fill="#333333"/>
<circle cx="716" cy="281" r="1" fill="#333333"/>
<circle cx="716" cy="321" r="1" fill="#333333"/>
<circle cx="716" cy="361" r="1" fill="#333333"/>
<circle cx="716" cy="401" r="1" fill="#333333"/>
<circle cx="716" cy="441" r="1" fill="#333333"/>
<circle cx="716" cy="481" r="1" fill="#333333"/>
<circle cx="716" cy="521" r="1" fill="#333333"/>
<circle cx="756" cy="1" r="1" fill="#333333"/>
<circle cx="756" cy="41" r="1" fill="#333333"/>
<circle cx="756" cy="81" r="1" fill="#333333"/>
<circle cx="756" cy="121" r="1" fill="#333333"/>
<circle cx="756" cy="161" r="1" fill="#333333"/>
<circle cx="756" cy="201" r="1" fill="#333333"/>
<circle cx="756" cy="241" r="1" fill="#333333"/>
<circle cx="756" cy="281" r="1" fill="#333333"/>
<circle cx="756" cy="321" r="1" fill="#333333"/>
<circle cx="756" cy="361" r="1" fill="#333333"/>
<circle cx="756" cy="401" r="1" fill="#333333"/>
<circle cx="756" cy="441" r="1" fill="#333333"/>
<circle cx="756" cy="481" r="1" fill="#333333"/>
<circle cx="756" cy="521" r="1" fill="#333333"/>
<circle cx="796" cy="1" r="1" fill="#333333"/>
<circle cx="796" cy="41" r="1" fill="#333333"/>
<circle cx="796" cy="81" r="1" fill="#333333"/>
<circle cx="796" cy="121" r="1" fill="#333333"/>
<circle cx="796" cy="161" r="1" fill="#333333"/>
<circle cx="796" cy="201" r="1" fill="#333333"/>
<circle cx="796" cy="241" r="1" fill="#333333"/>
<circle cx="796" cy="281" r="1" fill="#333333"/>
<circle cx="796" cy="321" r="1" fill="#333333"/>
<circle cx="796" cy="361" r="1" fill="#333333"/>
<circle cx="796" cy="401" r="1" fill="#333333"/>
<circle cx="796" cy="441" r="1" fill="#333333"/>
<circle cx="796" cy="481" r="1" fill="#333333"/>
<circle cx="796" cy="521" r="1" fill="#333333"/>
<circle cx="836" cy="1" r="1" fill="#333333"/>
<circle cx="836" cy="41" r="1" fill="#333333"/>
<circle cx="836" cy="81" r="1" fill="#333333"/>
<circle cx="836" cy="121" r="1" fill="#333333"/>
<circle cx="836" cy="161" r="1" fill="#333333"/>
<circle cx="836" cy="201" r="1" fill="#333333"/>
<circle cx="836" cy="241" r="1" fill="#333333"/>
<circle cx="836" cy="281" r="1" fill="#333333"/>
<circle cx="836" cy="321" r="1" fill="#333333"/>
<circle cx="836" cy="361" r="1" fill="#333333"/>
<circle cx="836" cy="401" r="1" fill="#333333"/>
<circle cx="836" cy="441" r="1" fill="#333333"/>
<circle cx="836" cy="481" r="1" fill="#333333"/>
<circle cx="836" cy="521" r="1" fill="#333333"/>
<circle cx="876" cy="1" r="1" fill="#333333"/>
<circle cx="876" cy="41" r="1" fill="#333333"/>
<circle cx="876" cy="81" r="1" fill="#333333"/>
<circle cx="876" cy="121" r="1" fill="#333333"/>
<circle cx="876" cy="161" r="1" fill="#333333"/>
<circle cx="876" cy="201" r="1" fill="#333333"/>
<circle cx="876" cy="241" r="1" fill="#333333"/>
<circle cx="876" cy="281" r="1" fill="#333333"/>
<circle cx="876" cy="321" r="1" fill="#333333"/>
<circle cx="876" cy="361" r="1" fill="#333333"/>
<circle cx="876" cy="401" r="1" fill="#333333"/>
<circle cx="876" cy="441" r="1" fill="#333333"/>
<circle cx="876" cy="481" r="1" fill="#333333"/>
<circle cx="876" cy="521" r="1" fill="#333333"/>
<circle cx="916" cy="1" r="1" fill="#333333"/>
<circle cx="916" cy="41" r="1" fill="#333333"/>
<circle cx="916" cy="81" r="1" fill="#333333"/>
<circle cx="916" cy="121" r="1" fill="#333333"/>
<circle cx="916" cy="161" r="1" fill="#333333"/>
<circle cx="916" cy="201" r="1" fill="#333333"/>
<circle cx="916" cy="241" r="1" fill="#333333"/>
<circle cx="916" cy="281" r="1" fill="#333333"/>
<circle cx="916" cy="321" r="1" fill="#333333"/>
<circle cx="916" cy="361" r="1" fill="#333333"/>
<circle cx="916" cy="401" r="1" fill="#333333"/>
<circle cx="916" cy="441" r="1" fill="#333333"/>
<circle cx="916" cy="481" r="1" fill="#333333"/>
<circle cx="916" cy="521" r="1" fill="#333333"/>
<circle cx="956" cy="1" r="1" fill="#333333"/>
<circle cx="956" cy="41" r="1" fill="#333333"/>
<circle cx="956" cy="81" r="1" fill="#333333"/>
<circle cx="956" cy="121" r="1" fill="#333333"/>
<circle cx="956" cy="161" r="1" fill="#333333"/>
<circle cx="956" cy="201" r="1" fill="#333333"/>
<circle cx="956" cy="241" r="1" fill="#333333"/>
<circle cx="956" cy="281" r="1" fill="#333333"/>
<circle cx="956" cy="321" r="1" fill="#333333"/>
<circle cx="956" cy="361" r="1" fill="#333333"/>
<circle cx="956" cy="401" r="1" fill="#333333"/>
<circle cx="956" cy="441" r="1" fill="#333333"/>
<circle cx="956" cy="481" r="1" fill="#333333"/>
<circle cx="956" cy="521" r="1" fill="#333333"/>
<circle cx="996" cy="1" r="1" fill="#333333"/>
<circle cx="996" cy="41" r="1" fill="#333333"/>
<circle cx="996" cy="81" r="1" fill="#333333"/>
<circle cx="996" cy="121" r="1" fill="#333333"/>
<circle cx="996" cy="161" r="1" fill="#333333"/>
<circle cx="996" cy="201" r="1" fill="#333333"/>
<circle cx="996" cy="241" r="1" fill="#333333"/>
<circle cx="996" cy="281" r="1" fill="#333333"/>
<circle cx="996" cy="321" r="1" fill="#333333"/>
<circle cx="996" cy="361" r="1" fill="#333333"/>
<circle cx="996" cy="401" r="1" fill="#333333"/>
<circle cx="996" cy="441" r="1" fill="#333333"/>
<circle cx="996" cy="481" r="1" fill="#333333"/>
<circle cx="996" cy="521" r="1" fill="#333333"/>
<circle cx="1036" cy="1" r="1" fill="#333333"/>
<circle cx="1036" cy="41" r="1" fill="#333333"/>
<circle cx="1036" cy="81" r="1" fill="#333333"/>
<circle cx="1036" cy="121" r="1" fill="#333333"/>
<circle cx="1036" cy="161" r="1" fill="#333333"/>
<circle cx="1036" cy="201" r="1" fill="#333333"/>
<circle cx="1036" cy="241" r="1" fill="#333333"/>
<circle cx="1036" cy="281" r="1" fill="#333333"/>
<circle cx="1036" cy="321" r="1" fill="#333333"/>
<circle cx="1036" cy="361" r="1" fill="#333333"/>
<circle cx="1036" cy="401" r="1" fill="#333333"/>
<circle cx="1036" cy="441" r="1" fill="#333333"/>
<circle cx="1036" cy="481" r="1" fill="#333333"/>
<circle cx="1036" cy="521" r="1" fill="#333333"/>
<circle cx="1076" cy="1" r="1" fill="#333333"/>
<circle cx="1076" cy="41" r="1" fill="#333333"/>
<circle cx="1076" cy="81" r="1" fill="#333333"/>
<circle cx="1076" cy="121" r="1" fill="#333333"/>
<circle cx="1076" cy="161" r="1" fill="#333333"/>
<circle cx="1076" cy="201" r="1" fill="#333333"/>
<circle cx="1076" cy="241" r="1" fill="#333333"/>
<circle cx="1076" cy="281" r="1" fill="#333333"/>
<circle cx="1076" cy="321" r="1" fill="#333333"/>
<circle cx="1076" cy="361" r="1" fill="#333333"/>
<circle cx="1076" cy="401" r="1" fill="#333333"/>
<circle cx="1076" cy="441" r="1" fill="#333333"/>
<circle cx="1076" cy="481" r="1" fill="#333333"/>
<circle cx="1076" cy="521" r="1" fill="#333333"/>
<circle cx="1116" cy="1" r="1" fill="#333333"/>
<circle cx="1116" cy="41" r="1" fill="#333333"/>
<circle cx="1116" cy="81" r="1" fill="#333333"/>
<circle cx="1116" cy="121" r="1" fill="#333333"/>
<circle cx="1116" cy="161" r="1" fill="#333333"/>
<circle cx="1116" cy="201" r="1" fill="#333333"/>
<circle cx="1116" cy="241" r="1" fill="#333333"/>
<circle cx="1116" cy="281" r="1" fill="#333333"/>
<circle cx="1116" cy="321" r="1" fill="#333333"/>
<circle cx="1116" cy="361" r="1" fill="#333333"/>
<circle cx="1116" cy="401" r="1" fill="#333333"/>
<circle cx="1116" cy="441" r="1" fill="#333333"/>
<circle cx="1116" cy="481" r="1" fill="#333333"/>
<circle cx="1116" cy="521" r="1" fill="#333333"/>
<circle cx="1156" cy="1" r="1" fill="#333333"/>
<circle cx="1156" cy="41" r="1" fill="#333333"/>
<circle cx="1156" cy="81" r="1" fill="#333333"/>
<circle cx="1156" cy="121" r="1" fill="#333333"/>
<circle cx="1156" cy="161" r="1" fill="#333333"/>
<circle cx="1156" cy="201" r="1" fill="#333333"/>
<circle cx="1156" cy="241" r="1" fill="#333333"/>
<circle cx="1156" cy="281" r="1" fill="#333333"/>
<circle cx="1156" cy="321" r="1" fill="#333333"/>
<circle cx="1156" cy="361" r="1" fill="#333333"/>
<circle cx="1156" cy="401" r="1" fill="#333333"/>
<circle cx="1156" cy="441" r="1" fill="#333333"/>
<circle cx="1156" cy="481" r="1" fill="#333333"/>
<circle cx="1156" cy="521" r="1" fill="#333333"/>
<circle cx="1196" cy="1" r="1" fill="#333333"/>
<circle cx="1196" cy="41" r="1" fill="#333333"/>
<circle cx="1196" cy="81" r="1" fill="#333333"/>
<circle cx="1196" cy="121" r="1" fill="#333333"/>
<circle cx="1196" cy="161" r="1" fill="#333333"/>
<circle cx="1196" cy="201" r="1" fill="#333333"/>
<circle cx="1196" cy="241" r="1" fill="#333333"/>
<circle cx="1196" cy="281" r="1" fill="#333333"/>
<circle cx="1196" cy="321" r="1" fill="#333333"/>
<circle cx="1196" cy="361" r="1" fill="#333333"/>
<circle cx="1196" cy="401" r="1" fill="#333333"/>
<circle cx="1196" cy="441" r="1" fill="#333333"/>
<circle cx="1196" cy="481" r="1" fill="#333333"/>
<circle cx="1196" cy="521" r="1" fill="#333333"/>
<circle cx="1236" cy="1" r="1" fill="#333333"/>
<circle cx="1236" cy="41" r="1" fill="#333333"/>
<circle cx="1236" cy="81" r="1" fill="#333333"/>
<circle cx="1236" cy="121" r="1" fill="#333333"/>
<circle cx="1236" cy="161" r="1" fill="#333333"/>
<circle cx="1236" cy="201" r="1" fill="#333333"/>
<circle cx="1236" cy="241" r="1" fill="#333333"/>
<circle cx="1236" cy="281" r="1" fill="#333333"/>
<circle cx="1236" cy="321" r="1" fill="#333333"/>
<circle cx="1236" cy="361" r="1" fill="#333333"/>
<circle cx="1236" cy="401" r="1" fill="#333333"/>
<circle cx="1236" cy="441" r="1" fill="#333333"/>
<circle cx="1236" cy="481" r="1" fill="#333333"/>
<circle cx="1236" cy="521" r="1" fill="#333333"/>
<circle cx="1276" cy="1" r="1" fill="#333333"/>
<circle cx="1276" cy="41" r="1" fill="#333333"/>
<circle cx="1276" cy="81" r="1" fill="#333333"/>
<circle cx="1276" cy="121" r="1" fill="#333333"/>
<circle cx="1276" cy="161" r="1" fill="#333333"/>
<circle cx="1276" cy="201" r="1" fill="#333333"/>
<circle cx="1276" cy="241" r="1" fill="#333333"/>
<circle cx="1276" cy="281" r="1" fill="#333333"/>
<circle cx="1276" cy="321" r="1" fill="#333333"/>
<circle cx="1276" cy="361" r="1" fill="#333333"/>
<circle cx="1276" cy="401" r="1" fill="#333333"/>
<circle cx="1276" cy="441" r="1" fill="#333333"/>
<circle cx="1276" cy="481" r="1" fill="#333333"/>
<circle cx="1276" cy="521" r="1" fill="#333333"/>
<circle cx="1316" cy="1" r="1" fill="#333333"/>
<circle cx="1316" cy="41" r="1" fill="#333333"/>
<circle cx="1316" cy="81" r="1" fill="#333333"/>
<circle cx="1316" cy="121" r="1" fill="#333333"/>
<circle cx="1316" cy="161" r="1" fill="#333333"/>
<circle cx="1316" cy="201" r="1" fill="#333333"/>
<circle cx="1316" cy="241" r="1" fill="#333333"/>
<circle cx="1316" cy="281" r="1" fill="#333333"/>
<circle cx="1316" cy="321" r="1" fill="#333333"/>
<circle cx="1316" cy="361" r="1" fill="#333333"/>
<circle cx="1316" cy="401" r="1" fill="#333333"/>
<circle cx="1316" cy="441" r="1" fill="#333333"/>
<circle cx="1316" cy="481" r="1" fill="#333333"/>
<circle cx="1316" cy="521" r="1" fill="#333333"/>
<circle cx="1356" cy="1" r="1" fill="#333333"/>
<circle cx="1356" cy="41" r="1" fill="#333333"/>
<circle cx="1356" cy="81" r="1" fill="#333333"/>
<circle cx="1356" cy="121" r="1" fill="#333333"/>
<circle cx="1356" cy="161" r="1" fill="#333333"/>
<circle cx="1356" cy="201" r="1" fill="#333333"/>
<circle cx="1356" cy="241" r="1" fill="#333333"/>
<circle cx="1356" cy="281" r="1" fill="#333333"/>
<circle cx="1356" cy="321" r="1" fill="#333333"/>
<circle cx="1356" cy="361" r="1" fill="#333333"/>
<circle cx="1356" cy="401" r="1" fill="#333333"/>
<circle cx="1356" cy="441" r="1" fill="#333333"/>
<circle cx="1356" cy="481" r="1" fill="#333333"/>
<circle cx="1356" cy="521" r="1" fill="#333333"/>
<circle cx="2" cy="562" r="1" fill="#333333"/>
<circle cx="2" cy="602" r="1" fill="#333333"/>
<circle cx="2" cy="642" r="1" fill="#333333"/>
<circle cx="2" cy="682" r="1" fill="#333333"/>
<circle cx="2" cy="722" r="1" fill="#333333"/>
<circle cx="2" cy="762" r="1" fill="#333333"/>
<circle cx="2" cy="802" r="1" fill="#333333"/>
<circle cx="2" cy="842" r="1" fill="#333333"/>
<circle cx="2" cy="882" r="1" fill="#333333"/>
<circle cx="2" cy="922" r="1" fill="#333333"/>
<circle cx="2" cy="962" r="1" fill="#333333"/>
<circle cx="2" cy="1002" r="1" fill="#333333"/>
<circle cx="2" cy="1042" r="1" fill="#333333"/>
<circle cx="2" cy="1082" r="1" fill="#333333"/>
<circle cx="37" cy="562" r="1" fill="#333333"/>
<circle cx="37" cy="602" r="1" fill="#333333"/>
<circle cx="37" cy="642" r="1" fill="#333333"/>
<circle cx="37" cy="682" r="1" fill="#333333"/>
<circle cx="37" cy="722" r="1" fill="#333333"/>
<circle cx="37" cy="762" r="1" fill="#333333"/>
<circle cx="37" cy="802" r="1" fill="#333333"/>
<circle cx="37" cy="842" r="1" fill="#333333"/>
<circle cx="37" cy="882" r="1" fill="#333333"/>
<circle cx="37" cy="922" r="1" fill="#333333"/>
<circle cx="37" cy="962" r="1" fill="#333333"/>
<circle cx="37" cy="1002" r="1" fill="#333333"/>
<circle cx="37" cy="1042" r="1" fill="#333333"/>
<circle cx="37" cy="1082" r="1" fill="#333333"/>
<circle cx="77" cy="562" r="1" fill="#333333"/>
<circle cx="77" cy="602" r="1" fill="#333333"/>
<circle cx="77" cy="642" r="1" fill="#333333"/>
<circle cx="77" cy="682" r="1" fill="#333333"/>
<circle cx="77" cy="722" r="1" fill="#333333"/>
<circle cx="77" cy="762" r="1" fill="#333333"/>
<circle cx="77" cy="802" r="1" fill="#333333"/>
<circle cx="77" cy="842" r="1" fill="#333333"/>
<circle cx="77" cy="882" r="1" fill="#333333"/>
<circle cx="77" cy="922" r="1" fill="#333333"/>
<circle cx="77" cy="962" r="1" fill="#333333"/>
<circle cx="77" cy="1002" r="1" fill="#333333"/>
<circle cx="77" cy="1042" r="1" fill="#333333"/>
<circle cx="77" cy="1082" r="1" fill="#333333"/>
<circle cx="117" cy="562" r="1" fill="#333333"/>
<circle cx="117" cy="602" r="1" fill="#333333"/>
<circle cx="117" cy="642" r="1" fill="#333333"/>
<circle cx="117" cy="682" r="1" fill="#333333"/>
<circle cx="117" cy="722" r="1" fill="#333333"/>
<circle cx="117" cy="762" r="1" fill="#333333"/>
<circle cx="117" cy="802" r="1" fill="#333333"/>
<circle cx="117" cy="842" r="1" fill="#333333"/>
<circle cx="117" cy="882" r="1" fill="#333333"/>
<circle cx="117" cy="922" r="1" fill="#333333"/>
<circle cx="117" cy="962" r="1" fill="#333333"/>
<circle cx="117" cy="1002" r="1" fill="#333333"/>
<circle cx="117" cy="1042" r="1" fill="#333333"/>
<circle cx="117" cy="1082" r="1" fill="#333333"/>
<circle cx="157" cy="562" r="1" fill="#333333"/>
<circle cx="157" cy="602" r="1" fill="#333333"/>
<circle cx="157" cy="642" r="1" fill="#333333"/>
<circle cx="157" cy="682" r="1" fill="#333333"/>
<circle cx="157" cy="722" r="1" fill="#333333"/>
<circle cx="157" cy="762" r="1" fill="#333333"/>
<circle cx="157" cy="802" r="1" fill="#333333"/>
<circle cx="157" cy="842" r="1" fill="#333333"/>
<circle cx="157" cy="882" r="1" fill="#333333"/>
<circle cx="157" cy="922" r="1" fill="#333333"/>
<circle cx="157" cy="962" r="1" fill="#333333"/>
<circle cx="157" cy="1002" r="1" fill="#333333"/>
<circle cx="157" cy="1042" r="1" fill="#333333"/>
<circle cx="157" cy="1082" r="1" fill="#333333"/>
<circle cx="197" cy="562" r="1" fill="#333333"/>
<circle cx="197" cy="602" r="1" fill="#333333"/>
<circle cx="197" cy="642" r="1" fill="#333333"/>
<circle cx="197" cy="682" r="1" fill="#333333"/>
<circle cx="197" cy="722" r="1" fill="#333333"/>
<circle cx="197" cy="762" r="1" fill="#333333"/>
<circle cx="197" cy="802" r="1" fill="#333333"/>
<circle cx="197" cy="842" r="1" fill="#333333"/>
<circle cx="197" cy="882" r="1" fill="#333333"/>
<circle cx="197" cy="922" r="1" fill="#333333"/>
<circle cx="197" cy="962" r="1" fill="#333333"/>
<circle cx="197" cy="1002" r="1" fill="#333333"/>
<circle cx="197" cy="1042" r="1" fill="#333333"/>
<circle cx="197" cy="1082" r="1" fill="#333333"/>
<circle cx="237" cy="562" r="1" fill="#333333"/>
<circle cx="237" cy="602" r="1" fill="#333333"/>
<circle cx="237" cy="642" r="1" fill="#333333"/>
<circle cx="237" cy="682" r="1" fill="#333333"/>
<circle cx="237" cy="722" r="1" fill="#333333"/>
<circle cx="237" cy="762" r="1" fill="#333333"/>
<circle cx="237" cy="802" r="1" fill="#333333"/>
<circle cx="237" cy="842" r="1" fill="#333333"/>
<circle cx="237" cy="882" r="1" fill="#333333"/>
<circle cx="237" cy="922" r="1" fill="#333333"/>
<circle cx="237" cy="962" r="1" fill="#333333"/>
<circle cx="237" cy="1002" r="1" fill="#333333"/>
<circle cx="237" cy="1042" r="1" fill="#333333"/>
<circle cx="237" cy="1082" r="1" fill="#333333"/>
<circle cx="277" cy="562" r="1" fill="#333333"/>
<circle cx="277" cy="602" r="1" fill="#333333"/>
<circle cx="277" cy="642" r="1" fill="#333333"/>
<circle cx="277" cy="682" r="1" fill="#333333"/>
<circle cx="277" cy="722" r="1" fill="#333333"/>
<circle cx="277" cy="762" r="1" fill="#333333"/>
<circle cx="277" cy="802" r="1" fill="#333333"/>
<circle cx="277" cy="842" r="1" fill="#333333"/>
<circle cx="277" cy="882" r="1" fill="#333333"/>
<circle cx="277" cy="922" r="1" fill="#333333"/>
<circle cx="277" cy="962" r="1" fill="#333333"/>
<circle cx="277" cy="1002" r="1" fill="#333333"/>
<circle cx="277" cy="1042" r="1" fill="#333333"/>
<circle cx="277" cy="1082" r="1" fill="#333333"/>
<circle cx="317" cy="562" r="1" fill="#333333"/>
<circle cx="317" cy="602" r="1" fill="#333333"/>
<circle cx="317" cy="642" r="1" fill="#333333"/>
<circle cx="317" cy="682" r="1" fill="#333333"/>
<circle cx="317" cy="722" r="1" fill="#333333"/>
<circle cx="317" cy="762" r="1" fill="#333333"/>
<circle cx="317" cy="802" r="1" fill="#333333"/>
<circle cx="317" cy="842" r="1" fill="#333333"/>
<circle cx="317" cy="882" r="1" fill="#333333"/>
<circle cx="317" cy="922" r="1" fill="#333333"/>
<circle cx="317" cy="962" r="1" fill="#333333"/>
<circle cx="317" cy="1002" r="1" fill="#333333"/>
<circle cx="317" cy="1042" r="1" fill="#333333"/>
<circle cx="317" cy="1082" r="1" fill="#333333"/>
<circle cx="357" cy="562" r="1" fill="#333333"/>
<circle cx="357" cy="602" r="1" fill="#333333"/>
<circle cx="357" cy="642" r="1" fill="#333333"/>
<circle cx="357" cy="682" r="1" fill="#333333"/>
<circle cx="357" cy="722" r="1" fill="#333333"/>
<circle cx="357" cy="762" r="1" fill="#333333"/>
<circle cx="357" cy="802" r="1" fill="#333333"/>
<circle cx="357" cy="842" r="1" fill="#333333"/>
<circle cx="357" cy="882" r="1" fill="#333333"/>
<circle cx="357" cy="922" r="1" fill="#333333"/>
<circle cx="357" cy="962" r="1" fill="#333333"/>
<circle cx="357" cy="1002" r="1" fill="#333333"/>
<circle cx="357" cy="1042" r="1" fill="#333333"/>
<circle cx="357" cy="1082" r="1" fill="#333333"/>
<circle cx="397" cy="562" r="1" fill="#333333"/>
<circle cx="397" cy="602" r="1" fill="#333333"/>
<circle cx="397" cy="642" r="1" fill="#333333"/>
<circle cx="397" cy="682" r="1" fill="#333333"/>
<circle cx="397" cy="722" r="1" fill="#333333"/>
<circle cx="397" cy="762" r="1" fill="#333333"/>
<circle cx="397" cy="802" r="1" fill="#333333"/>
<circle cx="397" cy="842" r="1" fill="#333333"/>
<circle cx="397" cy="882" r="1" fill="#333333"/>
<circle cx="397" cy="922" r="1" fill="#333333"/>
<circle cx="397" cy="962" r="1" fill="#333333"/>
<circle cx="397" cy="1002" r="1" fill="#333333"/>
<circle cx="397" cy="1042" r="1" fill="#333333"/>
<circle cx="397" cy="1082" r="1" fill="#333333"/>
<circle cx="437" cy="562" r="1" fill="#333333"/>
<circle cx="437" cy="602" r="1" fill="#333333"/>
<circle cx="437" cy="642" r="1" fill="#333333"/>
<circle cx="437" cy="682" r="1" fill="#333333"/>
<circle cx="437" cy="722" r="1" fill="#333333"/>
<circle cx="437" cy="762" r="1" fill="#333333"/>
<circle cx="437" cy="802" r="1" fill="#333333"/>
<circle cx="437" cy="842" r="1" fill="#333333"/>
<circle cx="437" cy="882" r="1" fill="#333333"/>
<circle cx="437" cy="922" r="1" fill="#333333"/>
<circle cx="437" cy="962" r="1" fill="#333333"/>
<circle cx="437" cy="1002" r="1" fill="#333333"/>
<circle cx="437" cy="1042" r="1" fill="#333333"/>
<circle cx="437" cy="1082" r="1" fill="#333333"/>
<circle cx="477" cy="562" r="1" fill="#333333"/>
<circle cx="477" cy="602" r="1" fill="#333333"/>
<circle cx="477" cy="642" r="1" fill="#333333"/>
<circle cx="477" cy="682" r="1" fill="#333333"/>
<circle cx="477" cy="722" r="1" fill="#333333"/>
<circle cx="477" cy="762" r="1" fill="#333333"/>
<circle cx="477" cy="802" r="1" fill="#333333"/>
<circle cx="477" cy="842" r="1" fill="#333333"/>
<circle cx="477" cy="882" r="1" fill="#333333"/>
<circle cx="477" cy="922" r="1" fill="#333333"/>
<circle cx="477" cy="962" r="1" fill="#333333"/>
<circle cx="477" cy="1002" r="1" fill="#333333"/>
<circle cx="477" cy="1042" r="1" fill="#333333"/>
<circle cx="477" cy="1082" r="1" fill="#333333"/>
<circle cx="517" cy="562" r="1" fill="#333333"/>
<circle cx="517" cy="602" r="1" fill="#333333"/>
<circle cx="517" cy="642" r="1" fill="#333333"/>
<circle cx="517" cy="682" r="1" fill="#333333"/>
<circle cx="517" cy="722" r="1" fill="#333333"/>
<circle cx="517" cy="762" r="1" fill="#333333"/>
<circle cx="517" cy="802" r="1" fill="#333333"/>
<circle cx="517" cy="842" r="1" fill="#333333"/>
<circle cx="517" cy="882" r="1" fill="#333333"/>
<circle cx="517" cy="922" r="1" fill="#333333"/>
<circle cx="517" cy="962" r="1" fill="#333333"/>
<circle cx="517" cy="1002" r="1" fill="#333333"/>
<circle cx="517" cy="1042" r="1" fill="#333333"/>
<circle cx="517" cy="1082" r="1" fill="#333333"/>
<circle cx="557" cy="562" r="1" fill="#333333"/>
<circle cx="557" cy="602" r="1" fill="#333333"/>
<circle cx="557" cy="642" r="1" fill="#333333"/>
<circle cx="557" cy="682" r="1" fill="#333333"/>
<circle cx="557" cy="722" r="1" fill="#333333"/>
<circle cx="557" cy="762" r="1" fill="#333333"/>
<circle cx="557" cy="802" r="1" fill="#333333"/>
<circle cx="557" cy="842" r="1" fill="#333333"/>
<circle cx="557" cy="882" r="1" fill="#333333"/>
<circle cx="557" cy="922" r="1" fill="#333333"/>
<circle cx="557" cy="962" r="1" fill="#333333"/>
<circle cx="557" cy="1002" r="1" fill="#333333"/>
<circle cx="557" cy="1042" r="1" fill="#333333"/>
<circle cx="557" cy="1082" r="1" fill="#333333"/>
<circle cx="597" cy="562" r="1" fill="#333333"/>
<circle cx="597" cy="602" r="1" fill="#333333"/>
<circle cx="597" cy="642" r="1" fill="#333333"/>
<circle cx="597" cy="682" r="1" fill="#333333"/>
<circle cx="597" cy="722" r="1" fill="#333333"/>
<circle cx="597" cy="762" r="1" fill="#333333"/>
<circle cx="597" cy="802" r="1" fill="#333333"/>
<circle cx="597" cy="842" r="1" fill="#333333"/>
<circle cx="597" cy="882" r="1" fill="#333333"/>
<circle cx="597" cy="922" r="1" fill="#333333"/>
<circle cx="597" cy="962" r="1" fill="#333333"/>
<circle cx="597" cy="1002" r="1" fill="#333333"/>
<circle cx="597" cy="1042" r="1" fill="#333333"/>
<circle cx="597" cy="1082" r="1" fill="#333333"/>
<circle cx="637" cy="562" r="1" fill="#333333"/>
<circle cx="637" cy="602" r="1" fill="#333333"/>
<circle cx="637" cy="642" r="1" fill="#333333"/>
<circle cx="637" cy="682" r="1" fill="#333333"/>
<circle cx="637" cy="722" r="1" fill="#333333"/>
<circle cx="637" cy="762" r="1" fill="#333333"/>
<circle cx="637" cy="802" r="1" fill="#333333"/>
<circle cx="637" cy="842" r="1" fill="#333333"/>
<circle cx="637" cy="882" r="1" fill="#333333"/>
<circle cx="637" cy="922" r="1" fill="#333333"/>
<circle cx="637" cy="962" r="1" fill="#333333"/>
<circle cx="637" cy="1002" r="1" fill="#333333"/>
<circle cx="637" cy="1042" r="1" fill="#333333"/>
<circle cx="637" cy="1082" r="1" fill="#333333"/>
<circle cx="677" cy="562" r="1" fill="#333333"/>
<circle cx="677" cy="602" r="1" fill="#333333"/>
<circle cx="677" cy="642" r="1" fill="#333333"/>
<circle cx="677" cy="682" r="1" fill="#333333"/>
<circle cx="677" cy="722" r="1" fill="#333333"/>
<circle cx="677" cy="762" r="1" fill="#333333"/>
<circle cx="677" cy="802" r="1" fill="#333333"/>
<circle cx="677" cy="842" r="1" fill="#333333"/>
<circle cx="677" cy="882" r="1" fill="#333333"/>
<circle cx="677" cy="922" r="1" fill="#333333"/>
<circle cx="677" cy="962" r="1" fill="#333333"/>
<circle cx="677" cy="1002" r="1" fill="#333333"/>
<circle cx="677" cy="1042" r="1" fill="#333333"/>
<circle cx="677" cy="1082" r="1" fill="#333333"/>
<circle cx="717" cy="562" r="1" fill="#333333"/>
<circle cx="717" cy="602" r="1" fill="#333333"/>
<circle cx="717" cy="642" r="1" fill="#333333"/>
<circle cx="717" cy="682" r="1" fill="#333333"/>
<circle cx="717" cy="722" r="1" fill="#333333"/>
<circle cx="717" cy="762" r="1" fill="#333333"/>
<circle cx="717" cy="802" r="1" fill="#333333"/>
<circle cx="717" cy="842" r="1" fill="#333333"/>
<circle cx="717" cy="882" r="1" fill="#333333"/>
<circle cx="717" cy="922" r="1" fill="#333333"/>
<circle cx="717" cy="962" r="1" fill="#333333"/>
<circle cx="717" cy="1002" r="1" fill="#333333"/>
<circle cx="717" cy="1042" r="1" fill="#333333"/>
<circle cx="717" cy="1082" r="1" fill="#333333"/>
<circle cx="757" cy="562" r="1" fill="#333333"/>
<circle cx="757" cy="602" r="1" fill="#333333"/>
<circle cx="757" cy="642" r="1" fill="#333333"/>
<circle cx="757" cy="682" r="1" fill="#333333"/>
<circle cx="757" cy="722" r="1" fill="#333333"/>
<circle cx="757" cy="762" r="1" fill="#333333"/>
<circle cx="757" cy="802" r="1" fill="#333333"/>
<circle cx="757" cy="842" r="1" fill="#333333"/>
<circle cx="757" cy="882" r="1" fill="#333333"/>
<circle cx="757" cy="922" r="1" fill="#333333"/>
<circle cx="757" cy="962" r="1" fill="#333333"/>
<circle cx="757" cy="1002" r="1" fill="#333333"/>
<circle cx="757" cy="1042" r="1" fill="#333333"/>
<circle cx="757" cy="1082" r="1" fill="#333333"/>
<circle cx="797" cy="562" r="1" fill="#333333"/>
<circle cx="797" cy="602" r="1" fill="#333333"/>
<circle cx="797" cy="642" r="1" fill="#333333"/>
<circle cx="797" cy="682" r="1" fill="#333333"/>
<circle cx="797" cy="722" r="1" fill="#333333"/>
<circle cx="797" cy="762" r="1" fill="#333333"/>
<circle cx="797" cy="802" r="1" fill="#333333"/>
<circle cx="797" cy="842" r="1" fill="#333333"/>
<circle cx="797" cy="882" r="1" fill="#333333"/>
<circle cx="797" cy="922" r="1" fill="#333333"/>
<circle cx="797" cy="962" r="1" fill="#333333"/>
<circle cx="797" cy="1002" r="1" fill="#333333"/>
<circle cx="797" cy="1042" r="1" fill="#333333"/>
<circle cx="797" cy="1082" r="1" fill="#333333"/>
<circle cx="837" cy="562" r="1" fill="#333333"/>
<circle cx="837" cy="602" r="1" fill="#333333"/>
<circle cx="837" cy="642" r="1" fill="#333333"/>
<circle cx="837" cy="682" r="1" fill="#333333"/>
<circle cx="837" cy="722" r="1" fill="#333333"/>
<circle cx="837" cy="762" r="1" fill="#333333"/>
<circle cx="837" cy="802" r="1" fill="#333333"/>
<circle cx="837" cy="842" r="1" fill="#333333"/>
<circle cx="837" cy="882" r="1" fill="#333333"/>
<circle cx="837" cy="922" r="1" fill="#333333"/>
<circle cx="837" cy="962" r="1" fill="#333333"/>
<circle cx="837" cy="1002" r="1" fill="#333333"/>
<circle cx="837" cy="1042" r="1" fill="#333333"/>
<circle cx="837" cy="1082" r="1" fill="#333333"/>
<circle cx="877" cy="562" r="1" fill="#333333"/>
<circle cx="877" cy="602" r="1" fill="#333333"/>
<circle cx="877" cy="642" r="1" fill="#333333"/>
<circle cx="877" cy="682" r="1" fill="#333333"/>
<circle cx="877" cy="722" r="1" fill="#333333"/>
<circle cx="877" cy="762" r="1" fill="#333333"/>
<circle cx="877" cy="802" r="1" fill="#333333"/>
<circle cx="877" cy="842" r="1" fill="#333333"/>
<circle cx="877" cy="882" r="1" fill="#333333"/>
<circle cx="877" cy="922" r="1" fill="#333333"/>
<circle cx="877" cy="962" r="1" fill="#333333"/>
<circle cx="877" cy="1002" r="1" fill="#333333"/>
<circle cx="877" cy="1042" r="1" fill="#333333"/>
<circle cx="877" cy="1082" r="1" fill="#333333"/>
<circle cx="917" cy="562" r="1" fill="#333333"/>
<circle cx="917" cy="602" r="1" fill="#333333"/>
<circle cx="917" cy="642" r="1" fill="#333333"/>
<circle cx="917" cy="682" r="1" fill="#333333"/>
<circle cx="917" cy="722" r="1" fill="#333333"/>
<circle cx="917" cy="762" r="1" fill="#333333"/>
<circle cx="917" cy="802" r="1" fill="#333333"/>
<circle cx="917" cy="842" r="1" fill="#333333"/>
<circle cx="917" cy="882" r="1" fill="#333333"/>
<circle cx="917" cy="922" r="1" fill="#333333"/>
<circle cx="917" cy="962" r="1" fill="#333333"/>
<circle cx="917" cy="1002" r="1" fill="#333333"/>
<circle cx="917" cy="1042" r="1" fill="#333333"/>
<circle cx="917" cy="1082" r="1" fill="#333333"/>
<circle cx="957" cy="562" r="1" fill="#333333"/>
<circle cx="957" cy="602" r="1" fill="#333333"/>
<circle cx="957" cy="642" r="1" fill="#333333"/>
<circle cx="957" cy="682" r="1" fill="#333333"/>
<circle cx="957" cy="722" r="1" fill="#333333"/>
<circle cx="957" cy="762" r="1" fill="#333333"/>
<circle cx="957" cy="802" r="1" fill="#333333"/>
<circle cx="957" cy="842" r="1" fill="#333333"/>
<circle cx="957" cy="882" r="1" fill="#333333"/>
<circle cx="957" cy="922" r="1" fill="#333333"/>
<circle cx="957" cy="962" r="1" fill="#333333"/>
<circle cx="957" cy="1002" r="1" fill="#333333"/>
<circle cx="957" cy="1042" r="1" fill="#333333"/>
<circle cx="957" cy="1082" r="1" fill="#333333"/>
<circle cx="997" cy="562" r="1" fill="#333333"/>
<circle cx="997" cy="602" r="1" fill="#333333"/>
<circle cx="997" cy="642" r="1" fill="#333333"/>
<circle cx="997" cy="682" r="1" fill="#333333"/>
<circle cx="997" cy="722" r="1" fill="#333333"/>
<circle cx="997" cy="762" r="1" fill="#333333"/>
<circle cx="997" cy="802" r="1" fill="#333333"/>
<circle cx="997" cy="842" r="1" fill="#333333"/>
<circle cx="997" cy="882" r="1" fill="#333333"/>
<circle cx="997" cy="922" r="1" fill="#333333"/>
<circle cx="997" cy="962" r="1" fill="#333333"/>
<circle cx="997" cy="1002" r="1" fill="#333333"/>
<circle cx="997" cy="1042" r="1" fill="#333333"/>
<circle cx="997" cy="1082" r="1" fill="#333333"/>
<circle cx="1037" cy="562" r="1" fill="#333333"/>
<circle cx="1037" cy="602" r="1" fill="#333333"/>
<circle cx="1037" cy="642" r="1" fill="#333333"/>
<circle cx="1037" cy="682" r="1" fill="#333333"/>
<circle cx="1037" cy="722" r="1" fill="#333333"/>
<circle cx="1037" cy="762" r="1" fill="#333333"/>
<circle cx="1037" cy="802" r="1" fill="#333333"/>
<circle cx="1037" cy="842" r="1" fill="#333333"/>
<circle cx="1037" cy="882" r="1" fill="#333333"/>
<circle cx="1037" cy="922" r="1" fill="#333333"/>
<circle cx="1037" cy="962" r="1" fill="#333333"/>
<circle cx="1037" cy="1002" r="1" fill="#333333"/>
<circle cx="1037" cy="1042" r="1" fill="#333333"/>
<circle cx="1037" cy="1082" r="1" fill="#333333"/>
<circle cx="1077" cy="562" r="1" fill="#333333"/>
<circle cx="1077" cy="602" r="1" fill="#333333"/>
<circle cx="1077" cy="642" r="1" fill="#333333"/>
<circle cx="1077" cy="682" r="1" fill="#333333"/>
<circle cx="1077" cy="722" r="1" fill="#333333"/>
<circle cx="1077" cy="762" r="1" fill="#333333"/>
<circle cx="1077" cy="802" r="1" fill="#333333"/>
<circle cx="1077" cy="842" r="1" fill="#333333"/>
<circle cx="1077" cy="882" r="1" fill="#333333"/>
<circle cx="1077" cy="922" r="1" fill="#333333"/>
<circle cx="1077" cy="962" r="1" fill="#333333"/>
<circle cx="1077" cy="1002" r="1" fill="#333333"/>
<circle cx="1077" cy="1042" r="1" fill="#333333"/>
<circle cx="1077" cy="1082" r="1" fill="#333333"/>
<circle cx="1117" cy="562" r="1" fill="#333333"/>
<circle cx="1117" cy="602" r="1" fill="#333333"/>
<circle cx="1117" cy="642" r="1" fill="#333333"/>
<circle cx="1117" cy="682" r="1" fill="#333333"/>
<circle cx="1117" cy="722" r="1" fill="#333333"/>
<circle cx="1117" cy="762" r="1" fill="#333333"/>
<circle cx="1117" cy="802" r="1" fill="#333333"/>
<circle cx="1117" cy="842" r="1" fill="#333333"/>
<circle cx="1117" cy="882" r="1" fill="#333333"/>
<circle cx="1117" cy="922" r="1" fill="#333333"/>
<circle cx="1117" cy="962" r="1" fill="#333333"/>
<circle cx="1117" cy="1002" r="1" fill="#333333"/>
<circle cx="1117" cy="1042" r="1" fill="#333333"/>
<circle cx="1117" cy="1082" r="1" fill="#333333"/>
<circle cx="1157" cy="562" r="1" fill="#333333"/>
<circle cx="1157" cy="602" r="1" fill="#333333"/>
<circle cx="1157" cy="642" r="1" fill="#333333"/>
<circle cx="1157" cy="682" r="1" fill="#333333"/>
<circle cx="1157" cy="722" r="1" fill="#333333"/>
<circle cx="1157" cy="762" r="1" fill="#333333"/>
<circle cx="1157" cy="802" r="1" fill="#333333"/>
<circle cx="1157" cy="842" r="1" fill="#333333"/>
<circle cx="1157" cy="882" r="1" fill="#333333"/>
<circle cx="1157" cy="922" r="1" fill="#333333"/>
<circle cx="1157" cy="962" r="1" fill="#333333"/>
<circle cx="1157" cy="1002" r="1" fill="#333333"/>
<circle cx="1157" cy="1042" r="1" fill="#333333"/>
<circle cx="1157" cy="1082" r="1" fill="#333333"/>
<circle cx="1197" cy="562" r="1" fill="#333333"/>
<circle cx="1197" cy="602" r="1" fill="#333333"/>
<circle cx="1197" cy="642" r="1" fill="#333333"/>
<circle cx="1197" cy="682" r="1" fill="#333333"/>
<circle cx="1197" cy="722" r="1" fill="#333333"/>
<circle cx="1197" cy="762" r="1" fill="#333333"/>
<circle cx="1197" cy="802" r="1" fill="#333333"/>
<circle cx="1197" cy="842" r="1" fill="#333333"/>
<circle cx="1197" cy="882" r="1" fill="#333333"/>
<circle cx="1197" cy="922" r="1" fill="#333333"/>
<circle cx="1197" cy="962" r="1" fill="#333333"/>
<circle cx="1197" cy="1002" r="1" fill="#333333"/>
<circle cx="1197" cy="1042" r="1" fill="#333333"/>
<circle cx="1197" cy="1082" r="1" fill="#333333"/>
<circle cx="1237" cy="562" r="1" fill="#333333"/>
<circle cx="1237" cy="602" r="1" fill="#333333"/>
<circle cx="1237" cy="642" r="1" fill="#333333"/>
<circle cx="1237" cy="682" r="1" fill="#333333"/>
<circle cx="1237" cy="722" r="1" fill="#333333"/>
<circle cx="1237" cy="762" r="1" fill="#333333"/>
<circle cx="1237" cy="802" r="1" fill="#333333"/>
<circle cx="1237" cy="842" r="1" fill="#333333"/>
<circle cx="1237" cy="882" r="1" fill="#333333"/>
<circle cx="1237" cy="922" r="1" fill="#333333"/>
<circle cx="1237" cy="962" r="1" fill="#333333"/>
<circle cx="1237" cy="1002" r="1" fill="#333333"/>
<circle cx="1237" cy="1042" r="1" fill="#333333"/>
<circle cx="1237" cy="1082" r="1" fill="#333333"/>
<circle cx="1277" cy="562" r="1" fill="#333333"/>
<circle cx="1277" cy="602" r="1" fill="#333333"/>
<circle cx="1277" cy="642" r="1" fill="#333333"/>
<circle cx="1277" cy="682" r="1" fill="#333333"/>
<circle cx="1277" cy="722" r="1" fill="#333333"/>
<circle cx="1277" cy="762" r="1" fill="#333333"/>
<circle cx="1277" cy="802" r="1" fill="#333333"/>
<circle cx="1277" cy="842" r="1" fill="#333333"/>
<circle cx="1277" cy="882" r="1" fill="#333333"/>
<circle cx="1277" cy="922" r="1" fill="#333333"/>
<circle cx="1277" cy="962" r="1" fill="#333333"/>
<circle cx="1277" cy="1002" r="1" fill="#333333"/>
<circle cx="1277" cy="1042" r="1" fill="#333333"/>
<circle cx="1277" cy="1082" r="1" fill="#333333"/>
<circle cx="1317" cy="562" r="1" fill="#333333"/>
<circle cx="1317" cy="602" r="1" fill="#333333"/>
<circle cx="1317" cy="642" r="1" fill="#333333"/>
<circle cx="1317" cy="682" r="1" fill="#333333"/>
<circle cx="1317" cy="722" r="1" fill="#333333"/>
<circle cx="1317" cy="762" r="1" fill="#333333"/>
<circle cx="1317" cy="802" r="1" fill="#333333"/>
<circle cx="1317" cy="842" r="1" fill="#333333"/>
<circle cx="1317" cy="882" r="1" fill="#333333"/>
<circle cx="1317" cy="922" r="1" fill="#333333"/>
<circle cx="1317" cy="962" r="1" fill="#333333"/>
<circle cx="1317" cy="1002" r="1" fill="#333333"/>
<circle cx="1317" cy="1042" r="1" fill="#333333"/>
<circle cx="1317" cy="1082" r="1" fill="#333333"/>
<circle cx="1357" cy="562" r="1" fill="#333333"/>
<circle cx="1357" cy="602" r="1" fill="#333333"/>
<circle cx="1357" cy="642" r="1" fill="#333333"/>
<circle cx="1357" cy="682" r="1" fill="#333333"/>
<circle cx="1357" cy="722" r="1" fill="#333333"/>
<circle cx="1357" cy="762" r="1" fill="#333333"/>
<circle cx="1357" cy="802" r="1" fill="#333333"/>
<circle cx="1357" cy="842" r="1" fill="#333333"/>
<circle cx="1357" cy="882" r="1" fill="#333333"/>
<circle cx="1357" cy="922" r="1" fill="#333333"/>
<circle cx="1357" cy="962" r="1" fill="#333333"/>
<circle cx="1357" cy="1002" r="1" fill="#333333"/>
<circle cx="1357" cy="1042" r="1" fill="#333333"/>
<circle cx="1357" cy="1082" r="1" fill="#333333"/>
</svg>
