<?xml version="1.0" encoding="utf-8"?>
<!-- Generator: Adobe Illustrator 15.1.0, SVG Export Plug-In . SVG Version: 6.00 Build 0)  -->
<!DOCTYPE svg PUBLIC "-//W3C//DTD SVG 1.1//EN" "http://www.w3.org/Graphics/SVG/1.1/DTD/svg11.dtd">
<svg version="1.1" id="Layer_1" xmlns="http://www.w3.org/2000/svg" xmlns:xlink="http://www.w3.org/1999/xlink" x="0px" y="0px"
	 width="" height="" viewBox="0 0 512 469.337" enable-background="new 0 0 512 469.337" xml:space="preserve">
<g>
	<path d="M341.333,469.668c-3.271,0-6.541-0.751-9.541-2.253l-160.458-80.342L31.917,466.852
		c-6.604,3.777-14.708,3.735-21.292-0.062C4.052,462.951,0,455.92,0,448.305V106.49c0-7.667,4.104-14.75,10.75-18.547L160.083,2.489
		c6.198-3.557,13.729-3.755,20.125-0.563l160.458,80.342L480.083,2.489c6.604-3.776,14.729-3.755,21.292,0.073
		C507.958,6.38,512,13.421,512,21.036v341.815c0,7.656-4.104,14.749-10.75,18.547l-149.333,85.453
		C348.646,468.729,345,469.668,341.333,469.668z M170.667,341.487c3.261,0,6.531,0.751,9.542,2.253l160.458,80.344l128.666-73.625
		V57.848l-117.416,67.188c-6.188,3.547-13.75,3.755-20.125,0.563L171.333,45.258L42.667,118.882v292.6l117.417-67.179
		C163.354,342.427,167.01,341.487,170.667,341.487z"/>
</g>
<g>
	<path d="M170.667,384.004c-11.781,0-21.333-9.542-21.333-21.333V21.337c0-11.781,9.552-21.333,21.333-21.333S192,9.556,192,21.337
		v341.333C192,374.462,182.448,384.004,170.667,384.004z"/>
</g>
<g>
	<path d="M341.333,469.337c-11.791,0-21.333-9.541-21.333-21.333V106.67c0-11.781,9.542-21.333,21.333-21.333
		c11.792,0,21.334,9.552,21.334,21.333v341.333C362.667,459.796,353.125,469.337,341.333,469.337z"/>
</g>
</svg>
