<?xml version="1.0" encoding="utf-8"?>
<!-- Generator: Adobe Illustrator 15.1.0, SVG Export Plug-In . SVG Version: 6.00 Build 0)  -->
<!DOCTYPE svg PUBLIC "-//W3C//DTD SVG 1.1//EN" "http://www.w3.org/Graphics/SVG/1.1/DTD/svg11.dtd">
<svg version="1.1" id="Layer_1" xmlns="http://www.w3.org/2000/svg" xmlns:xlink="http://www.w3.org/1999/xlink" x="0px" y="0px"
	 width="" height="" viewBox="0 0 454.372 512" enable-background="new 0 0 454.372 512" xml:space="preserve">
<path d="M373.178,343.133c-61.031,79.788-167.175,65.638-213.5,22.194c-53.896-50.512-62.076-144.129-17.01-201.716
	c22.187-28.311,51.626-44.311,86.394-50.197c56.236-9.522,104.025,7.146,141.577,49.86c26.776-26.909,52.355-52.58,78.405-78.736
	c-7.084-6.678-14.271-14.466-22.44-21.035C367.349,16.085,300.545-6.374,224.146,1.569C167.845,7.419,117.893,27.248,76.664,66.46
	C22.371,118.076-0.367,182.832,0.009,256.585C0.336,326.564,23.249,388.28,73.561,437.12
	c74.579,72.423,164.156,89.724,262.88,63.021c46.406-12.53,85.744-37.734,117.926-73.859c-25.621-25.721-50.793-50.95-75.893-76.237
	C376.688,348.236,375.372,345.99,373.178,343.133 M334.795,257.217c0.068-42.55-33.461-76.435-75.792-76.558
	c-42.956-0.138-77.465,33.747-77.509,76.109c-0.026,42.566,33.624,76.837,75.602,76.953
	C301.204,333.851,334.733,300.854,334.795,257.217"/>
<path d="M373.183,343.127c2.188,2.862,3.505,5.108,5.291,6.916c25.104,25.292,50.271,50.517,75.897,76.237
	c-32.187,36.125-71.52,61.329-117.931,73.859c-98.729,26.703-188.304,9.402-262.885-63.021
	C23.251,388.28,0.336,326.564,0.004,256.583c-0.369-73.753,22.369-138.504,76.654-190.125
	C117.888,27.245,167.84,7.417,224.149,1.572c76.396-7.948,143.2,14.511,202.455,61.935c8.169,6.563,15.347,14.352,22.44,21.03
	c-26.045,26.162-51.629,51.833-78.416,78.736c-37.541-42.71-85.341-59.383-141.563-49.855
	c-34.768,5.881-64.208,21.886-86.397,50.192c-45.063,57.586-36.891,151.207,17.005,201.718
	C206.005,408.771,312.142,422.921,373.183,343.127"/>
</svg>
