<?xml version="1.0" encoding="utf-8"?>
<!-- Generator: Adobe Illustrator 15.1.0, SVG Export Plug-In . SVG Version: 6.00 Build 0)  -->
<!DOCTYPE svg PUBLIC "-//W3C//DTD SVG 1.1//EN" "http://www.w3.org/Graphics/SVG/1.1/DTD/svg11.dtd">
<svg version="1.1" id="Layer_1" xmlns="http://www.w3.org/2000/svg" xmlns:xlink="http://www.w3.org/1999/xlink" x="0px" y="0px"
	 width="" height="" viewBox="0 0 512 384" enable-background="new 0 0 512 384" xml:space="preserve">
<g>
	<g>
		<path fill-rule="evenodd" clip-rule="evenodd" d="M506.973,10.438c-5.567-7.595-14.488-11.202-23.172-10.296H26.055
			c-8.504,0-16.027,4.158-20.674,10.543C5.257,10.845,5.129,11,5.008,11.163c-4.452,6.034-5.865,13.376-4.519,20.194V358.41
			c0,14.119,11.435,25.59,25.566,25.59h459.894c14.107,0,25.566-11.471,25.566-25.59V30.782
			C512.855,23.907,511.436,16.508,506.973,10.438z M256.057,173.964c-1.136-6.149-4.504-11.897-9.917-15.906L102.152,51.323h307.169
			L265.865,158.484C260.618,162.405,257.291,167.977,256.057,173.964z M51.597,77.524L215.73,199.193
			c11.36,8.397,27.339,5.998,35.753-5.348c2.253-3.053,3.721-6.443,4.454-9.929c0.681,3.743,2.193,7.39,4.584,10.652
			c8.389,11.447,24.393,13.846,35.753,5.375L460.408,77.336v255.483H51.597V77.524z"/>
	</g>
</g>
</svg>
