<?xml version="1.0" encoding="utf-8"?>
<!-- Generator: Adobe Illustrator 15.1.0, SVG Export Plug-In . SVG Version: 6.00 Build 0)  -->
<!DOCTYPE svg PUBLIC "-//W3C//DTD SVG 1.1//EN" "http://www.w3.org/Graphics/SVG/1.1/DTD/svg11.dtd">
<svg version="1.1" id="Layer_1" xmlns="http://www.w3.org/2000/svg" xmlns:xlink="http://www.w3.org/1999/xlink" x="0px" y="0px"
	 width="" height="" viewBox="0 0 365.95 512" enable-background="new 0 0 365.95 512" xml:space="preserve">
<path d="M302.015,0c7.797,2.525,16.112,4.034,23.296,7.757c25.524,13.275,39.122,34.637,40.53,63.525
	c0.025,0.521-0.171,1.056-0.342,2.009H73.535v5.672v290.379c0,6.545,0,6.55-6.726,6.55c-19.996,0.005-39.977,0.021-59.988,0
	c-6.374,0-6.61-0.236-6.61-6.389c0-99.141-0.01-198.276,0.01-297.406c0-34.612,26.672-65.746,60.829-71.174
	C61.945,0.767,62.8,0.314,63.661,0H302.015z"/>
<path d="M0,438.29h292.336v-6.173V142.518c0-6.985,0-6.995,6.796-6.995c20.409,0,40.812,0,61.226,0.005
	c5.247,0.005,5.564,0.282,5.564,5.654c0,99.022,0.09,198.032-0.051,297.037c-0.051,36.963-25.706,66.754-62.292,72.82
	c-4.05,0.664-8.226,0.9-12.351,0.916c-72.111,0.05-144.243,0.05-216.36,0.035c-37.065-0.021-67.056-25.052-73.682-61.508
	C0.518,446.751,0.438,442.897,0,438.29"/>
</svg>
