<?xml version="1.0" encoding="utf-8"?>
<!-- Generator: Adobe Illustrator 15.1.0, SVG Export Plug-In . SVG Version: 6.00 Build 0)  -->
<!DOCTYPE svg PUBLIC "-//W3C//DTD SVG 1.1//EN" "http://www.w3.org/Graphics/SVG/1.1/DTD/svg11.dtd">
<svg version="1.1" id="Layer_1" xmlns="http://www.w3.org/2000/svg" xmlns:xlink="http://www.w3.org/1999/xlink" x="0px" y="0px"
	 width="" height="" viewBox="0 0 512 478" enable-background="new 0 0 512 478" xml:space="preserve">
<path d="M412.564-17H98.456C43.911-17-0.506,27.386-0.506,81.947v104.503v209.57c0,54.593,44.417,98.979,98.962,98.979h314.108
	c54.576,0,98.93-44.387,98.93-98.979v-209.57V81.947C511.494,27.386,467.14-17,412.564-17z M440.946,42.025l11.314-0.062v11.3
	v75.505l-86.521,0.281l-0.281-86.805L440.946,42.025z M182.445,186.451c16.379-22.692,42.979-37.581,73.08-37.581
	c30.069,0,56.67,14.889,73.05,37.581c10.688,14.795,17.067,32.931,17.067,52.533c0,49.692-40.448,90.114-90.117,90.114
	c-49.699,0-90.116-40.421-90.116-90.114C165.409,219.381,171.786,201.246,182.445,186.451z M461.607,396.021
	c0,27.093-21.974,49.067-49.043,49.067H98.456c-27.069,0-49.075-21.975-49.075-49.067v-209.57h76.457
	c-6.626,16.231-10.347,33.961-10.347,52.533c0,77.192,62.797,140.025,140.035,140.025c77.175,0,139.972-62.833,139.972-140.025
	c0-18.572-3.72-36.302-10.315-52.533h76.426V396.021z"/>
</svg>
