<?xml version="1.0" encoding="utf-8"?>
<!-- Generator: Adobe Illustrator 15.1.0, SVG Export Plug-In . SVG Version: 6.00 Build 0)  -->
<!DOCTYPE svg PUBLIC "-//W3C//DTD SVG 1.1//EN" "http://www.w3.org/Graphics/SVG/1.1/DTD/svg11.dtd">
<svg version="1.1" id="Layer_1" xmlns="http://www.w3.org/2000/svg" xmlns:xlink="http://www.w3.org/1999/xlink" x="0px" y="0px"
	 width="" height="" viewBox="0 0 512 488.693" enable-background="new 0 0 512 488.693" xml:space="preserve">
<g>
	<path fill="#ffffff" d="M354.097,488.693H157.907C70.841,488.693,0,417.86,0,330.79V157.905C0,70.834,70.841,0,157.907,0h196.189
		C441.155,0,512,70.834,512,157.905V330.79C512,417.86,441.155,488.693,354.097,488.693 M160.553,40.728
		c-65.901,0-119.509,53.605-119.509,119.506v168.228c0,65.893,53.608,119.504,119.509,119.504h190.899
		c65.893,0,119.504-53.611,119.504-119.504V160.233c0-65.9-53.611-119.506-119.504-119.506H160.553z"/>
	<path fill="#ffffff" d="M256.004,377.858c-73.628,0-133.514-59.886-133.514-133.509c0-73.624,59.886-133.514,133.514-133.514
		c73.62,0,133.509,59.89,133.509,133.514C389.514,317.972,329.624,377.858,256.004,377.858 M256.004,148.181
		c-53.024,0-96.173,43.133-96.173,96.168c0,53.028,43.148,96.172,96.173,96.172c53.024,0,96.165-43.144,96.165-96.172
		C352.169,191.314,309.028,148.181,256.004,148.181"/>
	<path fill="#ffffff" d="M409.476,103.05c0,14.75-11.951,26.708-26.707,26.708c-14.754,0-26.714-11.958-26.714-26.708
		c0-14.759,11.96-26.716,26.714-26.716C397.524,76.333,409.476,88.291,409.476,103.05"/>
</g>
</svg>
