<?xml version="1.0" encoding="utf-8"?>
<!-- Generator: Adobe Illustrator 15.1.0, SVG Export Plug-In . SVG Version: 6.00 Build 0)  -->
<!DOCTYPE svg PUBLIC "-//W3C//DTD SVG 1.1//EN" "http://www.w3.org/Graphics/SVG/1.1/DTD/svg11.dtd">
<svg version="1.1" id="Layer_1" xmlns="http://www.w3.org/2000/svg" xmlns:xlink="http://www.w3.org/1999/xlink" x="0px" y="0px"
	 width="" height="" viewBox="0 0 512 512" enable-background="new 0 0 512 512" xml:space="preserve">
<path fill="#F1DDDB" d="M511.748,511.842c0.129-1.704,0.253-2.63,0.253-3.557c0-66.935-0.01-133.874-0.02-200.817
	c0-15.082-2.579-29.738-8.446-43.621c-19.585-46.372-54.25-74.297-104.223-80.134c-39.357-4.601-71.043,12.409-96.578,41.761
	c-1.421,1.632-2.782,3.321-5.506,6.583v-41.578H190.382v321.29h106.96v-8.737c0-57.846-0.01-115.691,0.024-173.527
	c0-4.423,0.154-8.866,0.55-13.269c2.812-31.452,37.482-54.522,67.553-45.013c24.506,7.742,39.052,27.964,39.101,54.963
	c0.109,59.005,0.035,118.009,0.04,177.02v8.638H511.748z M117.746,190.528H11.362V512h106.383V190.528z M128.746,64.752
	C128.934,29.22,100.094,0.126,64.555,0C29.276-0.121-0.106,29.275,0,64.575c0.111,35.31,28.583,63.871,64.018,64.22
	C99.621,129.144,128.562,100.514,128.746,64.752"/>
<path d="M511.753,511.842H404.605v-8.638c0-59.006,0.064-118.015-0.035-177.02c-0.045-26.999-14.595-47.221-39.101-54.963
	c-30.081-9.505-64.735,13.561-67.558,45.013c-0.396,4.402-0.545,8.846-0.545,13.269c-0.029,57.841-0.02,115.682-0.02,173.527v8.737
	H190.382V190.481h106.852v41.578c2.723-3.267,4.074-4.956,5.5-6.583c25.535-29.352,57.221-46.367,96.573-41.761
	c49.978,5.836,84.647,33.762,104.228,80.131c5.872,13.883,8.446,28.539,8.446,43.626c0.01,66.938,0.02,133.878,0.02,200.812
	C512,509.212,511.872,510.138,511.753,511.842"/>
<rect x="11.362" y="190.528" width="106.383" height="321.472"/>
<path d="M128.746,64.752c-0.183,35.761-29.125,64.392-64.728,64.042C28.583,128.446,0.112,99.884,0,64.575
	C-0.106,29.275,29.276-0.121,64.555,0C100.094,0.126,128.934,29.22,128.746,64.752"/>
</svg>
