<?xml version="1.0" encoding="utf-8"?>
<!-- Generator: Adobe Illustrator 15.1.0, SVG Export Plug-In . SVG Version: 6.00 Build 0)  -->
<!DOCTYPE svg PUBLIC "-//W3C//DTD SVG 1.1//EN" "http://www.w3.org/Graphics/SVG/1.1/DTD/svg11.dtd">
<svg version="1.1" id="Layer_1" xmlns="http://www.w3.org/2000/svg" xmlns:xlink="http://www.w3.org/1999/xlink" x="0px" y="0px"
	 width="" height="" viewBox="0 0 512 478" enable-background="new 0 0 512 478" xml:space="preserve">
<g>
	<g>
		<path d="M12.901,478h99.84V153.3h-99.84V478z M385.392,150.14c-57.204,0-93.039,31.838-99.674,54.128V153.3H173.645
			c1.434,27.047,0,324.7,0,324.7h112.074V302.31c0-9.814-0.399-19.562,2.467-26.548c7.734-19.528,24.269-39.789,54.004-39.789
			c38.936,0,56.637,30.041,56.637,73.988V478H512V297.452C512,196.882,456.263,150.14,385.392,150.14z M60.971,0
			C24.135,0,0,24.319,0,56.39c0,31.438,23.435,56.29,59.537,56.29h0.7c37.536,0,60.904-24.918,60.904-56.39
			C120.441,24.253,97.773,0,60.971,0z"/>
	</g>
</g>
</svg>
