<?xml version="1.0" encoding="utf-8"?>
<!-- Generator: Adobe Illustrator 15.1.0, SVG Export Plug-In . SVG Version: 6.00 Build 0)  -->
<!DOCTYPE svg PUBLIC "-//W3C//DTD SVG 1.1//EN" "http://www.w3.org/Graphics/SVG/1.1/DTD/svg11.dtd">
<svg version="1.1" id="Layer_1" xmlns="http://www.w3.org/2000/svg" xmlns:xlink="http://www.w3.org/1999/xlink" x="0px" y="0px"
	 width="" height="" viewBox="0 0 512 512" enable-background="new 0 0 512 512" xml:space="preserve">
<g>
	<path d="M441.989,512c-2.216,0-4.341-0.068-6.557-0.272c-75.609-8.188-148.935-34.227-212.449-75.362
		c-58.833-37.305-109.852-88.244-147.348-147.143C34.416,225.685,8.329,152.147,0.299,76.718
		c-1.713-19.006,3.975-37.179,15.979-51.544c12.003-14.376,28.907-23.212,47.57-24.9C66.041,0.091,68.051,0,70.107,0h70.173
		c35.247,0,65.114,25.903,69.945,60.254c2.752,20.807,7.835,41.169,15.133,60.711c9.583,25.459,3.392,54.463-15.819,73.845
		l-16.858,16.84c27.502,43.05,64.143,79.625,107.27,107.08l16.744-16.737c19.348-19.131,48.771-25.391,74.147-15.894
		c19.509,7.274,39.885,12.359,60.533,15.096c35.477,4.948,61.447,35.503,60.604,71.097v69.479
		c0.068,18.629-7.173,36.232-20.354,49.526C478.424,504.59,460.812,511.932,442.08,512C442.034,512,442.012,512,441.989,512z
		 M140.761,46.699H70.107c-8.281,0.649-13.9,3.591-17.909,8.38c-3.998,4.8-5.894,10.865-5.334,17.079
		c7.207,67.802,30.792,134.271,68.14,191.846c33.956,53.335,79.996,99.281,133.254,133.074
		c57.587,37.282,123.854,60.813,191.835,68.179l1.896,23.396l-0.092-23.351c6.259-0.022,12.106-2.462,16.516-6.908
		c4.386-4.424,6.808-10.307,6.785-16.532v-70.139c0.297-12.428-8.361-22.62-20.125-24.263c-23.985-3.169-47.787-9.098-70.631-17.626
		c-8.521-3.169-18.296-1.071-24.762,5.269L320.1,364.652c-7.447,7.41-18.96,8.983-28.097,3.785
		c-62.19-35.298-113.758-86.763-149.13-148.841c-5.208-9.144-3.655-20.625,3.792-28.058l29.708-29.654
		c6.316-6.373,8.383-16.041,5.173-24.546c-8.543-22.894-14.482-46.676-17.669-70.778C162.29,55.318,152.342,46.699,140.761,46.699z"
		/>
</g>
</svg>
