<?xml version="1.0" encoding="utf-8"?>
<!-- Generator: Adobe Illustrator 15.1.0, SVG Export Plug-In . SVG Version: 6.00 Build 0)  -->
<!DOCTYPE svg PUBLIC "-//W3C//DTD SVG 1.1//EN" "http://www.w3.org/Graphics/SVG/1.1/DTD/svg11.dtd">
<svg version="1.1" id="Layer_1" xmlns="http://www.w3.org/2000/svg" xmlns:xlink="http://www.w3.org/1999/xlink" x="0px" y="0px"
	 width="" height="" viewBox="0 0 432 512" enable-background="new 0 0 432 512" xml:space="preserve">
<g>
	<path d="M368.233,63.322C326.214,21.305,274.933,0,215.772,0C156.756,0,105.438,21.313,63.128,63.349
		C23.239,102.992,2.039,151.134,0,206.565h131.279c4.914-41.635,41.219-75.226,83.528-75.226c45.567,0,84.856,39.497,84.947,84.526
		c-0.036,15.689-8.862,33.69-26.969,55.113c-16.451,19.876-32.447,37.258-47.442,51.619c-26.077,25.008-47.496,52.292-63.673,81.086
		c-14.195,25.519-21.419,60.792-21.492,104.839V512l130.424-0.382c-6.314-41.645,2.056-75.117,24.949-99.598
		c23.201-24.553,47.787-49.853,73.137-75.226c16.378-16.053,31.573-34.127,45.258-53.766c12.084-17.638,18.18-40.225,18.053-67.108
		C431.762,156.74,410.306,105.403,368.233,63.322z"/>
</g>
</svg>
